<?xml version="1.0" encoding="utf-8"?>
<!-- Generator: Adobe Illustrator 26.0.1, SVG Export Plug-In . SVG Version: 6.00 Build 0)  -->
<svg version="1.1" id="Layer_1" xmlns="http://www.w3.org/2000/svg" xmlns:xlink="http://www.w3.org/1999/xlink" x="0px" y="0px"
	 viewBox="0 0 300 300" style="enable-background:new 0 0 300 300;" xml:space="preserve">
<style type="text/css">
	.st0{fill:#231F20;}
</style>
<path class="st0" d="M208.4,284.1H92.1c-24.6,0-36.9,0-47.6-5.5c-9.5-4.8-17-12.4-21.9-21.9c-5.5-10.7-5.5-23.1-5.5-47.6V106.6
	c0-24.6,0-36.9,5.5-47.6c4.8-9.5,12.4-17,21.9-21.9c5.8-2.9,12.4-4.4,22.2-5c4.7-0.3,8.7,3.3,9,8s-3.3,8.7-8,9
	c-7.3,0.4-12,1.4-15.5,3.2c-6.3,3.2-11.3,8.2-14.4,14.4c-3.3,6.4-3.6,16.1-3.6,34.2h232.3c0-18.1-0.3-27.8-3.6-34.2
	c-3.2-6.3-8.2-11.3-14.4-14.4c-3.6-1.8-8.2-2.8-15.5-3.2c-4.7-0.3-8.3-4.3-8-9s4.3-8.2,9-8c9.8,0.6,16.4,2.1,22.2,5
	c9.5,4.8,17,12.4,21.9,21.9c5.5,10.7,5.5,23.1,5.5,47.6v102.5c0,24.6,0,36.9-5.5,47.6c-4.8,9.5-12.4,17-21.9,21.9
	C245.3,284.1,233,284.1,208.4,284.1z M34.1,117.9v91.2c0,21.9,0,32.9,3.6,39.9c3.2,6.3,8.2,11.3,14.4,14.4c7.1,3.6,18,3.6,39.9,3.6
	h116.3c21.9,0,32.9,0,39.9-3.6c6.3-3.2,11.3-8.2,14.4-14.4c3.6-7.1,3.6-18,3.6-39.9v-91.2C266.2,117.9,34.1,117.9,34.1,117.9z
	 M205.6,62.5c-4.7,0-8.5-3.8-8.5-8.5V26.3c0-4.7,3.8-8.5,8.5-8.5s8.5,3.8,8.5,8.5V54C214.1,58.7,210.3,62.5,205.6,62.5z M94.9,62.5
	c-4.7,0-8.5-3.8-8.5-8.5V26.3c0-4.7,3.8-8.5,8.5-8.5s8.5,3.8,8.5,8.5V54C103.4,58.7,99.6,62.5,94.9,62.5z M171,48.7h-41.5
	c-4.7,0-8.5-3.8-8.5-8.5s3.8-8.5,8.5-8.5H171c4.7,0,8.5,3.8,8.5,8.5S175.7,48.7,171,48.7z"/>
</svg>
