<?xml version="1.0" encoding="utf-8"?>
<!-- Generator: Adobe Illustrator 26.0.1, SVG Export Plug-In . SVG Version: 6.00 Build 0)  -->
<svg version="1.1" id="Layer_1" xmlns="http://www.w3.org/2000/svg" xmlns:xlink="http://www.w3.org/1999/xlink" x="0px" y="0px"
	 viewBox="0 0 300 300" style="enable-background:new 0 0 300 300;" xml:space="preserve">
<path d="M162.7,150l85.8-85.8c3.5-3.5,3.5-9.2,0-12.7c-3.5-3.5-9.2-3.5-12.7,0L150,137.3L64.2,51.5c-3.5-3.5-9.2-3.5-12.7,0
	c-3.5,3.5-3.5,9.2,0,12.7l85.8,85.8l-85.8,85.8c-3.5,3.5-3.5,9.2,0,12.7c1.8,1.8,4.1,2.6,6.4,2.6s4.6-0.9,6.4-2.6l85.8-85.8
	l85.8,85.8c1.8,1.8,4.1,2.6,6.4,2.6s4.6-0.9,6.4-2.6c3.5-3.5,3.5-9.2,0-12.7L162.7,150z"/>
</svg>
