<?xml version="1.0" encoding="utf-8"?>
<!-- Generator: Adobe Illustrator 26.0.1, SVG Export Plug-In . SVG Version: 6.00 Build 0)  -->
<svg version="1.1" id="Layer_1" xmlns="http://www.w3.org/2000/svg" xmlns:xlink="http://www.w3.org/1999/xlink" x="0px" y="0px"
	 viewBox="0 0 300 300" style="enable-background:new 0 0 300 300;" xml:space="preserve">
<style type="text/css">
	.st0{fill-rule:evenodd;clip-rule:evenodd;fill:#1A0C21;}
</style>
<path class="st0" d="M150,51c8.5,0,15.5,6.9,15.5,15.5c0,8.5-6.9,15.5-15.5,15.5c-8.5,0-15.5-6.9-15.5-15.5
	C134.5,57.9,141.5,51,150,51z M150.1,66.2C150.1,66.2,150,66.2,150.1,66.2c-0.1,0-0.2,0-0.2,0c0,0,0,0-0.1,0c0,0,0,0.1,0,0.1
	c0,0,0,0,0,0.1c0,0,0,0.1,0,0.1c0,0,0,0,0,0.1c0,0,0.1,0,0.1,0c0,0,0,0,0.1,0c0,0,0.1,0,0.1,0c0,0,0,0,0.1,0c0,0,0-0.1,0-0.1
	c0,0,0,0,0-0.1c0,0,0-0.1,0-0.1C150.2,66.3,150.2,66.3,150.1,66.2C150.1,66.2,150.1,66.2,150.1,66.2z M150,134.5
	c8.5,0,15.5,6.9,15.5,15.5c0,8.5-6.9,15.5-15.5,15.5s-15.5-6.9-15.5-15.5C134.5,141.5,141.5,134.5,150,134.5z M150.1,149.8
	C150.1,149.8,150,149.8,150.1,149.8c-0.1,0-0.2,0-0.2,0c0,0,0,0-0.1,0c0,0,0,0.1,0,0.1c0,0,0,0,0,0.1c0,0,0,0.1,0,0.1c0,0,0,0,0,0.1
	c0,0,0.1,0,0.1,0c0,0,0,0,0.1,0c0,0,0.1,0,0.1,0c0,0,0,0,0.1,0c0,0,0-0.1,0-0.1c0,0,0,0,0-0.1c0,0,0-0.1,0-0.1
	C150.2,149.9,150.2,149.9,150.1,149.8C150.1,149.8,150.1,149.8,150.1,149.8z M150,218.1c8.5,0,15.5,6.9,15.5,15.5
	c0,8.5-6.9,15.5-15.5,15.5c-8.5,0-15.5-6.9-15.5-15.5C134.5,225.1,141.5,218.1,150,218.1z M150.1,233.4
	C150.1,233.4,150,233.4,150.1,233.4c-0.1,0-0.2,0-0.2,0c0,0,0,0-0.1,0c0,0,0,0.1,0,0.1c0,0,0,0,0,0.1c0,0,0,0.1,0,0.1c0,0,0,0,0,0.1
	c0,0,0.1,0,0.1,0c0,0,0,0,0.1,0c0,0,0.1,0,0.1,0c0,0,0,0,0.1,0c0,0,0-0.1,0-0.1c0,0,0,0,0-0.1c0,0,0-0.1,0-0.1
	C150.2,233.5,150.2,233.5,150.1,233.4C150.1,233.4,150.1,233.4,150.1,233.4z"/>
</svg>
