<?xml version="1.0" encoding="utf-8"?>
<!-- Generator: Adobe Illustrator 26.0.1, SVG Export Plug-In . SVG Version: 6.00 Build 0)  -->
<svg version="1.1" id="Layer_1" xmlns="http://www.w3.org/2000/svg" xmlns:xlink="http://www.w3.org/1999/xlink" x="0px" y="0px"
	 viewBox="0 0 300 300" style="enable-background:new 0 0 300 300;" xml:space="preserve">
<style type="text/css">
	.st0{fill:#231F20;}
</style>
<path class="st0" d="M250,267.6H50.5c-18.2,0-32.9-14.4-32.9-32.1v-169c0-17.7,14.8-32.1,32.9-32.1h76.2c13.6,0,26,8.4,30.8,20.8
	l6.6,17c2.4,6.3,8.8,10.6,15.9,10.6h70c18.2,0,32.9,14.4,32.9,32.1v120.7C282.9,253.2,268.1,267.6,250,267.6z M50.5,50.3
	c-9.3,0-16.9,7.2-16.9,16.1v169c0,8.9,7.6,16.1,16.9,16.1H250c9.3,0,16.9-7.2,16.9-16.1V114.7c0-8.9-7.6-16.1-16.9-16.1h-70
	c-13.6,0-26-8.4-30.8-20.8l-6.6-17c-2.4-6.3-8.8-10.6-15.9-10.6L50.5,50.3L50.5,50.3z"/>
</svg>
