<?xml version="1.0" encoding="utf-8"?>
<!-- Generator: Adobe Illustrator 26.0.1, SVG Export Plug-In . SVG Version: 6.00 Build 0)  -->
<svg version="1.1" id="Layer_1" xmlns="http://www.w3.org/2000/svg" xmlns:xlink="http://www.w3.org/1999/xlink" x="0px" y="0px"
	 viewBox="0 0 300 300" style="enable-background:new 0 0 300 300;" xml:space="preserve">
<style type="text/css">
	.st0{fill:#231F20;}
</style>
<path class="st0" d="M223.2,275.6H76.8c-15.5,0-23.2,0-30.5-3.6c-6.4-3.2-11.5-8.3-14.8-14.7c-3.7-7.2-3.7-15.4-3.7-30.3v-90.3
	c0-7.7,0-12,1.3-16.4c1.1-4,2.9-7.6,5.4-10.9c2.8-3.7,6.1-6.3,12.3-11l85.6-65.9c5-3.8,8-6.2,12.1-7.3c3.6-1,7.4-1,11.1,0
	c4.1,1.1,7.1,3.4,12.1,7.3l85.6,65.9c6.1,4.7,9.5,7.3,12.3,11c2.5,3.3,4.3,7,5.4,10.9c1.3,4.5,1.3,8.7,1.3,16.4V227
	c0,14.9,0,23.1-3.7,30.3c-3.3,6.4-8.4,11.4-14.8,14.7C246.4,275.6,238.6,275.6,223.2,275.6z M150,41.6c-0.4,0-0.7,0-1.1,0.1
	c-0.8,0.2-3.4,2.2-6.1,4.3l-85.6,65.9c-5.1,3.9-7.6,5.9-9,7.7c-1.2,1.6-2.1,3.4-2.6,5.3c-0.6,2.2-0.6,5.4-0.6,11.7V227
	c0,12.2,0,18.9,1.8,22.4c1.6,3.1,4.1,5.6,7.2,7.2c3.6,1.8,10.4,1.8,22.7,1.8H223c12.3,0,19.1,0,22.7-1.8c3.1-1.6,5.6-4.1,7.2-7.2
	c1.8-3.5,1.8-10.2,1.8-22.4v-90.3c0-6.4,0-9.6-0.6-11.7c-0.5-1.9-1.4-3.7-2.6-5.3c-1.4-1.8-3.9-3.8-9-7.7l-85.6-65.9
	c-2.7-2.1-5.3-4.1-6.1-4.3C150.7,41.7,150.4,41.6,150,41.6z"/>
</svg>
