<?xml version="1.0" encoding="utf-8"?>
<!-- Generator: Adobe Illustrator 26.0.1, SVG Export Plug-In . SVG Version: 6.00 Build 0)  -->
<svg version="1.1" id="Layer_1" xmlns="http://www.w3.org/2000/svg" xmlns:xlink="http://www.w3.org/1999/xlink" x="0px" y="0px"
	 viewBox="0 0 94 50" style="enable-background:new 0 0 94 50;" xml:space="preserve">
<style type="text/css">
	.st0{fill:#231F20;}
</style>
<g>
	<path class="st0" d="M20.3,6.5l-19,32.9C-1.2,43.7,1.9,49,6.8,49c4.7,0,7.1-7.7,19-7.7c13,0,14.3,7.7,19,7.7c4.9,0,8-5.3,5.5-9.6
		L31.4,6.5C28.9,2.2,22.8,2.2,20.3,6.5z"/>
	<path class="st0" d="M62.6,43.5l-19-32.9C41.1,6.3,44.2,1,49.1,1h38c4.9,0,8,5.3,5.5,9.6l-19,32.9C71.2,47.8,65,47.8,62.6,43.5z"/>
</g>
</svg>
