<?xml version="1.0" encoding="utf-8"?>
<!-- Generator: Adobe Illustrator 26.0.1, SVG Export Plug-In . SVG Version: 6.00 Build 0)  -->
<svg version="1.1" id="Layer_1" xmlns="http://www.w3.org/2000/svg" xmlns:xlink="http://www.w3.org/1999/xlink" x="0px" y="0px"
	 viewBox="0 0 300 300" style="enable-background:new 0 0 300 300;" xml:space="preserve">
<style type="text/css">
	.st0{fill-rule:evenodd;clip-rule:evenodd;fill:#1A0C21;}
</style>
<path class="st0" d="M94.5,91.8c0-30.7,24.9-55.5,55.5-55.5c30.7,0,55.5,24.9,55.5,55.5v47.6c0,30.7-24.9,55.5-55.5,55.5
	c-30.7,0-55.5-24.9-55.5-55.5V91.8z M70.6,126.2c4.4,0,7.9,3.6,7.9,7.9v5.3c0,39.4,32,71.4,71.4,71.4c39.4,0,71.4-32,71.4-71.4v-5.3
	c0-4.4,3.6-7.9,7.9-7.9s7.9,3.6,7.9,7.9v5.3c0,45.5-34.9,82.9-79.4,86.9v29.5c0,4.4-3.6,7.9-7.9,7.9c-4.4,0-7.9-3.6-7.9-7.9v-29.5
	c-44.5-4-79.4-41.4-79.4-86.9v-5.3C62.7,129.7,66.3,126.2,70.6,126.2z"/>
</svg>
