<?xml version="1.0" encoding="utf-8"?>
<!-- Generator: Adobe Illustrator 26.0.1, SVG Export Plug-In . SVG Version: 6.00 Build 0)  -->
<svg version="1.1" id="Layer_1" xmlns="http://www.w3.org/2000/svg" xmlns:xlink="http://www.w3.org/1999/xlink" x="0px" y="0px"
	 viewBox="0 0 300 300" style="enable-background:new 0 0 300 300;" xml:space="preserve">
<style type="text/css">
	.st0{fill-rule:evenodd;clip-rule:evenodd;fill:#231F20;}
</style>
<path class="st0" d="M194.8,57.9c19.3-19.4,51.1-17.2,67.5,4.7c13.9,18.6,11.5,44.8-5.5,60.5L123.6,245.8
	c-5.5,5.1-12.1,8.9-19.2,11.2l-41.5,13.5c-13.5,4.4-26.2-8.4-21.9-22l13.1-40.8c2.5-7.9,6.9-15.1,12.7-21L194.8,57.9z M208.9,138.8
	l-32.5-32.7l-94.8,95.4c-3.5,3.5-6.1,7.8-7.6,12.6l-11,34.3l35-11.4c4.3-1.4,8.2-3.7,11.5-6.7L208.9,138.8z"/>
</svg>
