<?xml version="1.0" encoding="utf-8"?>
<!-- Generator: Adobe Illustrator 26.0.1, SVG Export Plug-In . SVG Version: 6.00 Build 0)  -->
<svg version="1.1" id="Layer_1" xmlns="http://www.w3.org/2000/svg" xmlns:xlink="http://www.w3.org/1999/xlink" x="0px" y="0px"
	 viewBox="0 0 300 300" style="enable-background:new 0 0 300 300;" xml:space="preserve">
<style type="text/css">
	.st0{fill:#231F20;}
</style>
<path class="st0" d="M73.8,231.2c-1.2,4.3,1.3,8.7,5.6,9.8c4.3,1.2,8.7-1.3,9.8-5.6L73.8,231.2z M211.3,235.5
	c1.2,4.3,5.6,6.7,9.8,5.6c4.3-1.2,6.7-5.6,5.6-9.8L211.3,235.5z M113.6,112h8l0,0H113.6z M150,148.6v8l0,0V148.6z M150.2,185.3v-8
	c-20.6,0-37.6,5.6-50.6,15.3c-13,9.8-21.6,23.4-25.8,38.6l7.7,2.1l7.7,2.1c3.4-12.2,10.1-22.7,20-30.1c9.9-7.4,23.4-12.1,41-12.1
	V185.3z M219,233.4l7.7-2.1c-4.2-15.3-12.8-28.8-25.8-38.6s-30-15.3-50.6-15.3v8v8c17.6,0,31.1,4.7,41,12.1
	c9.9,7.4,16.6,17.9,20,30.1L219,233.4z M150.3,148.6v8c24.6,0,44.6-20,44.6-44.6h-8h-8c0,15.8-12.8,28.7-28.7,28.7v7.9H150.3z
	 M186.9,112h8c0-24.6-20-44.6-44.6-44.6v8v8c15.8,0,28.7,12.8,28.7,28.7h7.9V112z M150.3,75.4v-8c-24.6,0-44.6,20-44.6,44.6h8h8
	c0-15.8,12.8-28.7,28.7-28.7v-7.9H150.3z M113.6,112h-8c-0.1,24.6,19.8,44.6,44.3,44.7v-8v-8c-15.8-0.1-28.5-12.9-28.4-28.6
	L113.6,112z M150,148.6v8h0.3v-8v-8H150V148.6z M287.7,150.9h-8c0,71.5-57.9,129.4-129.4,129.4v8v8c80.3,0,145.4-65.1,145.4-145.4
	H287.7z M150.2,288.3v-8c-71.5,0-129.4-57.9-129.4-129.4h-8h-8c0,80.3,65.1,145.4,145.4,145.4V288.3z M12.8,150.9h8
	c0-71.5,57.9-129.4,129.4-129.4v-8v-8C69.9,5.5,4.8,70.6,4.8,150.9H12.8z M150.2,13.5v8c71.5,0,129.4,57.9,129.4,129.4h8h8
	c0-80.3-65.1-145.4-145.4-145.4L150.2,13.5L150.2,13.5z"/>
</svg>
