<?xml version="1.0" encoding="utf-8"?>
<!-- Generator: Adobe Illustrator 26.0.1, SVG Export Plug-In . SVG Version: 6.00 Build 0)  -->
<svg version="1.1" id="Layer_1" xmlns="http://www.w3.org/2000/svg" xmlns:xlink="http://www.w3.org/1999/xlink" x="0px" y="0px"
	 viewBox="0 0 512 100" style="enable-background:new 0 0 512 100;" xml:space="preserve">
<style type="text/css">
	.st0{fill:#654C9F;}
</style>
<path class="st0" d="M99.2,50c0,26.9-21.8,48.7-48.7,48.7S1.8,76.9,1.8,50S23.6,1.3,50.5,1.3S99.2,23.1,99.2,50z M72.4,44.9L43.1,28
	C38.2,25.2,32,28.7,32,34.4v33.7c0,5.7,6.2,9.3,11.1,6.4l29.2-16.9C77.3,54.9,77.3,47.7,72.4,44.9z"/>
<rect x="104.8" y="46.8" width="393.5" height="3.7"/>
<path d="M108.8,61.4L108.8,61.4c-2.2,0-4-1.8-4-4V39.8c0-2.2,1.8-4,4-4h0c2.2,0,4,1.8,4,4v17.6C112.8,59.7,111,61.4,108.8,61.4z"/>
<g>
	<path d="M114.7,20.5c0,1.1-0.1,2.1-0.2,2.9c-0.2,0.9-0.4,1.6-0.8,2.2s-0.8,1.1-1.4,1.4c-0.6,0.3-1.2,0.5-2,0.5
		c-1,0-1.8-0.3-2.5-0.8c-0.7-0.5-1.1-1.3-1.5-2.4c-0.3-1-0.5-2.3-0.5-3.8c0-1.4,0.1-2.7,0.4-3.7c0.3-1,0.8-1.8,1.4-2.4
		c0.7-0.6,1.5-0.8,2.6-0.8c1,0,1.9,0.3,2.5,0.8c0.7,0.6,1.1,1.3,1.5,2.4C114.5,17.8,114.7,19.1,114.7,20.5z M107.3,20.5
		c0,1.3,0.1,2.3,0.3,3.1c0.2,0.8,0.5,1.5,0.9,1.9c0.4,0.4,1,0.6,1.7,0.6c0.7,0,1.3-0.2,1.7-0.6c0.4-0.4,0.7-1,0.9-1.9
		c0.2-0.8,0.3-1.9,0.3-3.1c0-1.2-0.1-2.3-0.3-3.1c-0.2-0.8-0.5-1.5-0.9-1.9c-0.4-0.4-1-0.6-1.7-0.6c-0.7,0-1.3,0.2-1.7,0.6
		c-0.4,0.4-0.7,1-0.9,1.9C107.4,18.2,107.3,19.3,107.3,20.5z"/>
	<path d="M117,18.1c0-0.4,0.1-0.8,0.3-0.9c0.2-0.2,0.5-0.3,0.8-0.3c0.3,0,0.6,0.1,0.8,0.3c0.2,0.2,0.3,0.5,0.3,0.9
		c0,0.4-0.1,0.7-0.3,0.9c-0.2,0.2-0.5,0.3-0.8,0.3c-0.3,0-0.6-0.1-0.8-0.3C117.1,18.8,117,18.5,117,18.1z M117,26.3
		c0-0.4,0.1-0.7,0.3-0.9c0.2-0.2,0.5-0.3,0.8-0.3c0.3,0,0.6,0.1,0.8,0.3c0.2,0.2,0.3,0.5,0.3,0.9c0,0.4-0.1,0.7-0.3,0.9
		c-0.2,0.2-0.5,0.3-0.8,0.3c-0.3,0-0.6-0.1-0.8-0.3C117.1,27,117,26.7,117,26.3z"/>
	<path d="M125.8,19c0.9,0,1.7,0.2,2.4,0.5c0.7,0.3,1.2,0.8,1.6,1.4c0.4,0.6,0.6,1.3,0.6,2.2c0,0.9-0.2,1.7-0.6,2.4
		c-0.4,0.7-1,1.2-1.7,1.5c-0.8,0.4-1.6,0.5-2.7,0.5c-0.7,0-1.4-0.1-2-0.2c-0.6-0.1-1.1-0.3-1.5-0.6v-1.5c0.4,0.3,1,0.5,1.6,0.6
		c0.6,0.2,1.3,0.2,1.9,0.2c0.7,0,1.3-0.1,1.8-0.3c0.5-0.2,0.9-0.6,1.2-1c0.3-0.4,0.4-1,0.4-1.7c0-0.9-0.3-1.6-0.8-2.1
		c-0.6-0.5-1.4-0.7-2.6-0.7c-0.4,0-0.8,0-1.3,0.1c-0.5,0.1-0.8,0.1-1.1,0.2l-0.8-0.5l0.5-6.3h6.7v1.4H124l-0.3,4.1
		c0.2,0,0.5-0.1,0.9-0.2C124.9,19,125.3,19,125.8,19z"/>
	<path d="M141.2,19.5c0,0.8-0.1,1.6-0.2,2.4c-0.1,0.8-0.3,1.5-0.6,2.2s-0.6,1.3-1.1,1.8s-1.1,0.9-1.8,1.2c-0.7,0.3-1.5,0.4-2.5,0.4
		c-0.3,0-0.6,0-0.9-0.1c-0.3,0-0.6-0.1-0.8-0.1v-1.3c0.2,0.1,0.5,0.1,0.8,0.2c0.3,0,0.6,0.1,0.9,0.1c1.2,0,2.1-0.2,2.7-0.7
		c0.7-0.5,1.1-1.2,1.4-2c0.3-0.9,0.5-1.8,0.5-2.9h-0.1c-0.2,0.3-0.4,0.6-0.7,0.8c-0.3,0.2-0.7,0.4-1.1,0.6s-0.9,0.2-1.5,0.2
		c-0.8,0-1.5-0.2-2-0.5c-0.6-0.3-1-0.8-1.4-1.4c-0.3-0.6-0.5-1.3-0.5-2.2c0-0.9,0.2-1.7,0.5-2.4s0.9-1.2,1.5-1.6
		c0.6-0.4,1.4-0.6,2.3-0.6c0.7,0,1.3,0.1,1.8,0.4c0.6,0.3,1,0.6,1.4,1.1c0.4,0.5,0.7,1.1,1,1.9C141.1,17.7,141.2,18.5,141.2,19.5z
		 M136.7,14.9c-0.8,0-1.5,0.3-2,0.8c-0.5,0.5-0.8,1.3-0.8,2.4c0,0.9,0.2,1.6,0.7,2.1c0.4,0.5,1.1,0.8,2,0.8c0.6,0,1.2-0.1,1.6-0.4
		c0.5-0.3,0.8-0.6,1.1-1c0.2-0.4,0.4-0.8,0.4-1.2c0-0.4-0.1-0.8-0.2-1.2c-0.1-0.4-0.3-0.8-0.5-1.2s-0.6-0.6-0.9-0.9
		C137.6,15,137.2,14.9,136.7,14.9z"/>
</g>
</svg>
