<?xml version="1.0" encoding="utf-8"?>
<!-- Generator: Adobe Illustrator 26.0.1, SVG Export Plug-In . SVG Version: 6.00 Build 0)  -->
<svg version="1.1" id="Layer_1" xmlns="http://www.w3.org/2000/svg" xmlns:xlink="http://www.w3.org/1999/xlink" x="0px" y="0px"
	 viewBox="0 0 300 300" style="enable-background:new 0 0 300 300;" xml:space="preserve">
<style type="text/css">
	.st0{fill-rule:evenodd;clip-rule:evenodd;}
</style>
<g>
	<path d="M211.9,120.7h-9c-0.8-3.1-2.2-6.9-4.3-11.2c-2-4.3-4.3-8.4-6.9-12.2c-2.6-4-5.5-7.5-8.6-10.5c-3.1-3-6.1-4.7-9-5.2
		c-2.7-0.3-6.1-0.6-10.2-0.8c-4.1-0.2-7.9-0.3-11.4-0.3H145v148.1c0,2.9,0.6,5.5,1.8,7.9c1.2,2.4,3.3,4.2,6.4,5.5
		c1.6,0.6,4.8,1.4,9.9,2.5c5,1,8.9,1.6,11.7,1.7v9.3H87.4v-9.3c2.4-0.2,6.2-0.5,11.2-1c5-0.5,8.5-1.2,10.4-2c2.9-1.1,5-2.8,6.3-4.9
		c1.3-2.1,2-5,2-8.5V80.6h-7.6c-2.7,0-6,0.1-10,0.2c-4,0.1-7.8,0.4-11.5,0.8c-2.9,0.3-5.9,2.1-8.9,5.2c-3.1,3.1-5.9,6.6-8.5,10.5
		c-2.6,3.9-4.9,8.1-6.9,12.5c-2,4.4-3.4,8-4.2,10.9h-9.1V70.5h161.4V120.7z"/>
</g>
<rect x="236.7" y="31.4" class="st0" width="12.9" height="245.3"/>
</svg>
