<svg width="12" height="12" viewBox="0 0 12 12" fill="none" xmlns="http://www.w3.org/2000/svg">
<g clip-path="url(#clip0_308_15278)">
<path d="M1.84082 10.1638L10.1453 1.85928L1.84082 10.1638Z" fill="white"/>
<path d="M1.84082 10.1638L10.1453 1.85928" stroke="#D7D7D7" stroke-miterlimit="10"/>
<path d="M8.19841 0.544403L0.544434 8.19838L8.19841 0.544403Z" fill="white"/>
<path d="M8.19841 0.544403L0.544434 8.19838" stroke="#D7D7D7" stroke-miterlimit="10"/>
<path d="M5.31488 0.166077L0.15686 5.31025L5.31488 0.166077Z" fill="white"/>
<path d="M5.31488 0.166077L0.15686 5.31025" stroke="#D7D7D7" stroke-miterlimit="10"/>
<path d="M0.544434 8.19838L8.19841 0.544403L0.544434 8.19838Z" fill="white"/>
<path d="M0.544434 8.19838L8.19841 0.544403" stroke="#D7D7D7" stroke-miterlimit="10"/>
<path d="M0.15686 5.31026L5.31026 0.161469L0.15686 5.31026Z" fill="white"/>
<path d="M0.15686 5.31026L5.31026 0.161469" stroke="#D7D7D7" stroke-miterlimit="10"/>
<path d="M10.1592 1.84082L1.85468 10.1453L10.1592 1.84082Z" fill="white"/>
<path d="M10.1592 1.84082L1.85468 10.1453" stroke="#D7D7D7" stroke-miterlimit="10"/>
<path d="M3.80621 11.4602L11.4602 3.80624L3.80621 11.4602Z" fill="white"/>
<path d="M3.80621 11.4602L11.4602 3.80624" stroke="#D7D7D7" stroke-miterlimit="10"/>
<path d="M6.68976 11.8385L11.8385 6.69434L6.68976 11.8385Z" fill="white"/>
<path d="M6.68976 11.8385L11.8385 6.69434" stroke="#D7D7D7" stroke-miterlimit="10"/>
<path d="M11.4602 3.80624L3.80621 11.4602L11.4602 3.80624Z" fill="white"/>
<path d="M11.4602 3.80624L3.80621 11.4602" stroke="#D7D7D7" stroke-miterlimit="10"/>
<path d="M11.8385 6.69434L6.68976 11.8385L11.8385 6.69434Z" fill="white"/>
<path d="M11.8385 6.69434L6.68976 11.8385" stroke="#D7D7D7" stroke-miterlimit="10"/>
</g>
<defs>
<clipPath id="clip0_308_15278">
<rect width="12" height="12" fill="white"/>
</clipPath>
</defs>
</svg>
