<?xml version="1.0" encoding="utf-8"?>
<!-- Generator: Adobe Illustrator 26.0.1, SVG Export Plug-In . SVG Version: 6.00 Build 0)  -->
<svg version="1.1" id="Layer_1" xmlns="http://www.w3.org/2000/svg" xmlns:xlink="http://www.w3.org/1999/xlink" x="0px" y="0px"
	 viewBox="0 0 300 300" style="enable-background:new 0 0 300 300;" xml:space="preserve">
<g>
	<path d="M134.1,136.6c-10.5,0-20.9,0-31.4,0c-5.1,0-10.1-0.1-15.1,0c0,0-0.1,0-0.3,0c-3.4,0-7,1.5-9.5,4c-2.3,2.3-4,6.2-4,9.5
		c0.1,3.4,1.3,7.1,4,9.5c2.7,2.4,5.9,3.9,9.5,4c4.1,0,8.3,0,12.6,0c9.9,0,19.9,0,29.8,0c12,0,24,0,36.2,0c4.8,0,9.6,0,14.4,0
		c-2.6,2.6-5.2,5.2-7.8,7.8c-1.4,1.4-2.9,2.9-4.3,4.3c-2.4,2.4-3.9,6-4,9.5c0,3.3,1.4,7.2,4,9.5c2.6,2.3,5.9,4.1,9.5,4
		c3.5-0.1,6.9-1.3,9.5-4c4-4,7.9-7.9,11.9-11.9c6.3-6.3,12.6-12.6,18.9-18.9c1.3-1.3,2.5-2.5,3.8-3.8c0.1-0.1,0.4-0.4,0.5-0.5
		c0.7-0.7,1.4-1.6,1.9-2.5c0.4-0.5,0.6-1.1,0.8-1.7c0.8-1.6,1.2-3.5,1.1-5.4c0-1.3-0.2-2.6-0.6-4c-0.6-2.1-1.6-4-3.3-5.5
		c-4-4-7.9-7.9-11.9-11.9c-6.3-6.3-12.6-12.6-18.9-18.9c-1.4-1.4-2.9-2.9-4.3-4.3c-2.4-2.4-6-3.9-9.5-4c-3.3,0-7.2,1.4-9.5,4
		c-2.3,2.6-4.1,5.9-4,9.5c0.1,3.5,1.3,6.9,4,9.5c4,4,7.9,7.9,11.9,11.9c0.1,0.1,0.2,0.2,0.4,0.4c-3.4,0-6.8,0-10,0
		C158.2,136.5,146.1,136.6,134.1,136.6z"/>
</g>
</svg>
