<?xml version="1.0" encoding="utf-8"?>
<!-- Generator: Adobe Illustrator 26.0.1, SVG Export Plug-In . SVG Version: 6.00 Build 0)  -->
<svg version="1.1" id="Layer_1" xmlns:sketch="http://www.bohemiancoding.com/sketch/ns"
	 xmlns="http://www.w3.org/2000/svg" xmlns:xlink="http://www.w3.org/1999/xlink" x="0px" y="0px" viewBox="0 0 204.3 180"
	 style="enable-background:new 0 0 204.3 180;" xml:space="preserve">
<style type="text/css">
	.st0{fill:none;stroke:#6D6D6D;stroke-miterlimit:10;}
</style>
<desc>Created with Sketch.</desc>
<path class="st0" d="M200.7,70.6c-0.7-0.3-16.7-7.5-45.5-7.5c-15.9,0-24.6,2.5-32.3,4.6c-6.3,1.8-11.7,3.3-20.4,3.3
	c-8.6,0-14.1-1.6-20.4-3.3C74.6,65.6,66,63.1,50,63.1c-28.8,0-44.9,7.2-45.5,7.5c-0.9,0.4-1.5,1.2-1.5,2.2L2.2,85.1
	c-0.1,1.1,0.6,2.2,1.7,2.6s2.4,1.3,2.6,1.7c0.1,0.4,0.4,1.8,0.8,3.7c1.3,6.3,3.7,18,6.7,25.8c3.4,9.1,7.1,12.9,15.5,16.5
	c5.1,2.2,12.9,3.5,20.5,3.5c7.4,0,14.3-1.3,19.9-3.7c14.7-6.3,18.1-15.8,22.5-27.9c0.7-1.8,1.2-3.4,1.7-4.8c3.1-8.9,3.6-10,8.6-10
	s5.5,1.2,8.6,10c0.5,1.5,1.1,3,1.8,4.8c4.4,12.1,7.9,21.6,22.5,27.9c5.6,2.5,12.5,3.7,19.9,3.7c7.6,0,15.3-1.4,20.5-3.5
	c8.5-3.6,12.1-7.6,15.5-16.5c3-7.8,5.4-19.5,6.7-25.7c0.4-2,0.7-3.3,0.8-3.8c0.2-0.4,1.5-1.3,2.6-1.7c1.1-0.4,1.7-1.5,1.7-2.6
	l-0.9-12.4C202.2,71.9,201.6,71,200.7,70.6L200.7,70.6L200.7,70.6z"/>
<path class="st0" d="M77.7,114.5C73,124,63.5,128.8,49,128.8c-11.5,0-18.6-2.6-22.9-8.5c-4.2-5.6-9.2-29.7-6-37.2
	c3.1-7.1,17.8-9.6,30.5-9.6c13.3,0,29.1,2.8,32.4,8.8C86.3,88.5,84.3,100.5,77.7,114.5L77.7,114.5L77.7,114.5z"/>
<path class="st0" d="M179.3,120.4c-4.3,5.8-11.4,8.5-22.9,8.5c-14.4,0-24-4.8-28.6-14.4c-6.7-14-8.8-26-5.4-32.2
	c3.2-6,19.1-8.8,32.4-8.8c12.7,0,27.4,2.6,30.5,9.6C188.5,90.5,183.4,114.7,179.3,120.4L179.3,120.4L179.3,120.4z"/>
</svg>
