<?xml version="1.0" encoding="utf-8"?>
<!-- Generator: Adobe Illustrator 26.0.1, SVG Export Plug-In . SVG Version: 6.00 Build 0)  -->
<svg version="1.1" id="Layer_1" xmlns="http://www.w3.org/2000/svg" xmlns:xlink="http://www.w3.org/1999/xlink" x="0px" y="0px"
	 viewBox="0 0 140.7 180" style="enable-background:new 0 0 140.7 180;" xml:space="preserve">
<style type="text/css">
	.st0{fill:none;stroke:#6D6D6D;stroke-miterlimit:10;}
</style>
<path class="st0" d="M122.1,72.1c-30.9,33.4-41.1-17-10.6-19.5c11.3-0.9,18.1-10.7,20.2-22.7c2-11.3-60.1-42.9-113.3,31.5
	c-30.6,42.8-20.2,99.7,17.3,114.4c18.8,7.4,37.5,4,57.3-8.6c14.7-9.3,21.2-20.3,30.7-37.3c7.2-12.9,11.1-25.2,15-41.7
	C140.2,81.7,134.8,58.4,122.1,72.1z"/>
<path class="st0" d="M40.6,74.3c6.1,0.7,10.5,6.2,9.8,12.3s-6.2,10.5-12.3,9.8s-10.5-6.2-9.8-12.3S34.5,73.6,40.6,74.3z"/>
<path class="st0" d="M23.4,117.3c0.7-6.1,6.2-10.5,12.3-9.8s10.5,6.2,9.8,12.3s-6.2,10.5-12.3,9.8C27.1,129,22.7,123.4,23.4,117.3z"
	/>
<path class="st0" d="M48.2,160.5c-6.1-0.7-10.5-6.2-9.8-12.3s6.2-10.5,12.3-9.8s10.5,6.2,9.8,12.3S54.3,161.2,48.2,160.5z"/>
</svg>
