<?xml version="1.0" encoding="utf-8"?>
<!-- Generator: Adobe Illustrator 26.0.1, SVG Export Plug-In . SVG Version: 6.00 Build 0)  -->
<svg version="1.1" id="Layer_1" xmlns="http://www.w3.org/2000/svg" xmlns:xlink="http://www.w3.org/1999/xlink" x="0px" y="0px"
	 viewBox="0 0 180 180" style="enable-background:new 0 0 180 180;" xml:space="preserve">
<style type="text/css">
	.st0{fill:none;stroke:#6D6D6D;stroke-miterlimit:10;}
</style>
<path class="st0" d="M8.8,58.6h28.7c4.2,0,7.5-3.4,7.5-7.5V22.3c0-4.2-3.4-7.5-7.5-7.5H8.8c-4.2,0-7.5,3.4-7.5,7.5v28.7
	C1.3,55.2,4.7,58.6,8.8,58.6z"/>
<path class="st0" d="M8.8,113.3h28.7c4.2,0,7.5-3.4,7.5-7.5V77c0-4.2-3.4-7.5-7.5-7.5H8.8c-4.2,0-7.5,3.4-7.5,7.5v28.7
	C1.3,109.9,4.7,113.3,8.8,113.3z"/>
<path class="st0" d="M8.8,168h28.7c4.2,0,7.5-3.4,7.5-7.5v-28.7c0-4.2-3.4-7.5-7.5-7.5H8.8c-4.2,0-7.5,3.4-7.5,7.5v28.7
	C1.3,164.6,4.7,168,8.8,168z"/>
<path class="st0" d="M63.6,58.6h28.7c4.2,0,7.5-3.4,7.5-7.5V22.3c0-4.2-3.4-7.5-7.5-7.5H63.6c-4.2,0-7.5,3.4-7.5,7.5v28.7
	C56,55.2,59.4,58.6,63.6,58.6z"/>
<path class="st0" d="M63.6,113.3h28.7c4.2,0,7.5-3.4,7.5-7.5V77c0-4.2-3.4-7.5-7.5-7.5H63.6c-4.2,0-7.5,3.4-7.5,7.5v28.7
	C56,109.9,59.4,113.3,63.6,113.3z"/>
<path class="st0" d="M63.6,168h28.7c4.2,0,7.5-3.4,7.5-7.5v-28.7c0-4.2-3.4-7.5-7.5-7.5H63.6c-4.2,0-7.5,3.4-7.5,7.5v28.7
	C56,164.6,59.4,168,63.6,168z"/>
<path class="st0" d="M128.6,45.9h28.7c4.2,0,7.5-3.4,7.5-7.5V9.6c0-4.2-3.4-7.5-7.5-7.5h-28.7c-4.2,0-7.5,3.4-7.5,7.5v28.7
	C121.1,42.5,124.5,45.9,128.6,45.9z"/>
<path class="st0" d="M118.3,113.3H147c4.2,0,7.5-3.4,7.5-7.5V77c0-4.2-3.4-7.5-7.5-7.5h-28.7c-4.2,0-7.5,3.4-7.5,7.5v28.7
	C110.8,109.9,114.1,113.3,118.3,113.3z"/>
<path class="st0" d="M118.3,168H147c4.2,0,7.5-3.4,7.5-7.5v-28.7c0-4.2-3.4-7.5-7.5-7.5h-28.7c-4.2,0-7.5,3.4-7.5,7.5v28.7
	C110.8,164.6,114.1,168,118.3,168z"/>
</svg>
